/* XPM */
static char *result[] = {
/* columns rows colors chars-per-pixel */
"64 64 169 2 ",
"   c #191511",
".  c #191818",
"X  c #2F120A",
"o  c #341107",
"O  c #35140B",
"+  c #3B160C",
"@  c #3F190E",
"#  c #2F271C",
"$  c #352612",
"%  c #3B201A",
"&  c #24282B",
"*  c #2A2B2B",
"=  c #302E29",
"-  c #36302B",
";  c #323334",
":  c #363738",
">  c #3D3D3D",
",  c #431E05",
"<  c #431A0E",
"1  c #4B1E0D",
"2  c #561C03",
"3  c #5B1902",
"4  c #451C11",
"5  c #4B1F11",
"6  c #611B00",
"7  c #55210F",
"8  c #5A2109",
"9  c #4D2113",
"0  c #45271D",
"q  c #4B241A",
"w  c #542414",
"e  c #582616",
"r  c #5B2817",
"t  c #5B2718",
"y  c #542A1E",
"u  c #5C2919",
"i  c #632104",
"p  c #61230B",
"a  c #602713",
"s  c #632D1C",
"d  c #64321E",
"f  c #6A321E",
"g  c #4B2A23",
"h  c #482B2A",
"j  c #40312B",
"k  c #5F3826",
"l  c #5C3A2C",
"z  c #493035",
"x  c #4E373F",
"c  c #6C3421",
"v  c #6B3B2D",
"b  c #723624",
"n  c #733927",
"m  c #7C3B24",
"M  c #743728",
"N  c #763C2A",
"B  c #7A3E2B",
"V  c #6A3E32",
"C  c #613D3D",
"Z  c #40403F",
"A  c #6D442E",
"S  c #724428",
"D  c #7D412D",
"F  c #67493B",
"G  c #694838",
"H  c #6F4D39",
"J  c #744837",
"K  c #7B5338",
"L  c #3A3A52",
"P  c #323E5F",
"I  c #274765",
"U  c #2E456F",
"Y  c #2B4C7B",
"T  c #384F7B",
"R  c #424748",
"E  c #4C4C4A",
"W  c #5D4946",
"Q  c #58474A",
"!  c #5C534F",
"~  c #41495E",
"^  c #574753",
"/  c #5A5758",
"(  c #5E5C5E",
")  c #684F45",
"_  c #695148",
"`  c #625657",
"'  c #745252",
"]  c #474D68",
"[  c #4A5065",
"{  c #585769",
"}  c #475C7B",
"|  c #4D5F7A",
" . c #565772",
".. c #526076",
"X. c #6F6F6B",
"o. c #63637A",
"O. c #777B78",
"+. c #833413",
"@. c #893711",
"#. c #8D3B15",
"$. c #863B1B",
"%. c #893E1E",
"&. c #833C21",
"*. c #8C4324",
"=. c #82442B",
"-. c #83482A",
";. c #8F4B2D",
":. c #9B4922",
">. c #814631",
",. c #854931",
"<. c #894C36",
"1. c #945136",
"2. c #9B573A",
"3. c #AE6745",
"4. c #1F5B95",
"5. c #264C83",
"6. c #395689",
"7. c #355B8A",
"8. c #2E5892",
"9. c #31669F",
"0. c #3C699D",
"q. c #1B5BA7",
"w. c #225DA4",
"e. c #1D63AF",
"r. c #1065B5",
"t. c #1964B7",
"y. c #1966BB",
"u. c #2361AB",
"i. c #2A67AF",
"p. c #366BA7",
"a. c #356BAD",
"s. c #2668B7",
"d. c #2C6DB4",
"f. c #246CBC",
"g. c #2672BB",
"h. c #3373B9",
"j. c #455B85",
"k. c #465F8D",
"l. c #456387",
"z. c #4E6B8E",
"x. c #496391",
"c. c #4C6B94",
"v. c #0D6ACA",
"b. c #166CC6",
"n. c #1B6CC4",
"m. c #136ECC",
"M. c #1D73CB",
"N. c #0B76DF",
"B. c #0F78DF",
"V. c #1272D6",
"C. c #1B73D3",
"Z. c #1778DA",
"A. c #197ADB",
"S. c #2576CA",
"D. c #0777E1",
"F. c #0D77E3",
"G. c #0679E7",
"H. c #0A79E1",
"J. c #0B7CEB",
"K. c #147BE1",
"L. c #047EF3",
"P. c #027FFB",
"I. c #0581F5",
"U. c #0981F2",
"Y. c #0080FF",
"T. c #0088FF",
"R. c #8B8B87",
"E. c #93938F",
"W. c #A2A29F",
/* pixels */
"Y.Y.Y.Y.Y.Y.Y.Y.Y.Y.Y.Y.Y.Y.Y.Y.P.Y.Y.Y.Y.Y.Y.Y.Y.Y.Y.Y.Y.Y.Y.Y.Y.Y.Y.Y.Y.Y.Y.Y.Y.Y.Y.Y.Y.Y.Y.Y.Y.P.Y.Y.P.Y.Y.Y.Y.Y.Y.Y.Y.Y.Y.Y.",
"Y.Y.Y.Y.Y.Y.Y.Y.Y.Y.Y.Y.Y.P.Y.Y.Y.Y.Y.Y.Y.Y.Y.Y.Y.Y.Y.P.Y.Y.P.Y.Y.Y.Y.Y.Y.Y.Y.Y.Y.P.Y.Y.Y.Y.Y.Y.Y.Y.Y.Y.Y.Y.Y.Y.Y.Y.Y.Y.Y.Y.Y.P.",
"Y.P.Y.Y.P.Y.Y.Y.P.Y.Y.Y.Y.Y.Y.Y.Y.Y.Y.Y.Y.Y.P.Y.Y.Y.Y.Y.Y.Y.Y.Y.Y.Y.Y.P.Y.Y.P.Y.Y.Y.Y.Y.Y.Y.Y.Y.Y.Y.Y.Y.Y.Y.Y.Y.Y.Y.P.Y.Y.Y.Y.Y.",
"Y.Y.Y.Y.Y.Y.Y.Y.Y.Y.Y.Y.Y.Y.Y.Y.Y.Y.Y.Y.Y.Y.Y.Y.Y.Y.Y.Y.Y.Y.Y.Y.Y.Y.Y.Y.Y.Y.Y.Y.Y.Y.Y.Y.P.Y.Y.Y.Y.Y.Y.Y.Y.Y.Y.Y.Y.Y.Y.Y.Y.Y.Y.Y.",
"Y.Y.Y.Y.Y.Y.Y.Y.Y.Y.Y.Y.P.Y.Y.Y.Y.Y.P.Y.Y.Y.Y.Y.Y.Y.Y.Y.Y.P.Y.P.Y.Y.Y.Y.Y.Y.Y.Y.P.Y.Y.Y.Y.Y.Y.Y.Y.P.Y.P.Y.Y.Y.Y.Y.Y.Y.Y.Y.Y.P.Y.",
"Y.Y.Y.Y.Y.Y.Y.Y.P.Y.Y.Y.Y.Y.Y.Y.Y.Y.Y.Y.Y.Y.Y.Y.P.Y.Y.Y.Y.Y.Y.Y.Y.Y.Y.P.Y.Y.Y.P.Y.Y.Y.Y.Y.Y.Y.Y.Y.Y.Y.Y.Y.Y.P.Y.Y.Y.Y.Y.Y.Y.Y.Y.",
"Y.Y.Y.P.Y.Y.P.Y.Y.Y.Y.Y.Y.P.Y.Y.Y.Y.Y.Y.Y.Y.Y.Y.Y.Y.Y.Y.Y.Y.Y.Y.Y.Y.Y.Y.Y.Y.Y.Y.Y.Y.Y.Y.P.Y.Y.Y.Y.Y.Y.Y.Y.Y.Y.Y.Y.Y.P.Y.Y.Y.Y.Y.",
"Y.Y.Y.Y.Y.Y.Y.Y.Y.Y.Y.Y.Y.Y.Y.Y.Y.Y.Y.Y.Y.P.P.Y.Y.Y.Y.Y.Y.Y.Y.Y.Y.Y.Y.Y.Y.Y.Y.Y.Y.Y.Y.Y.Y.Y.Y.Y.Y.Y.Y.Y.Y.Y.Y.Y.Y.Y.Y.Y.Y.Y.Y.Y.",
"P.Y.Y.Y.Y.Y.Y.Y.Y.Y.Y.Y.Y.Y.Y.Y.Y.Y.Y.Y.Y.Y.Y.Y.Y.Y.Y.Y.Y.Y.Y.Y.Y.Y.Y.Y.Y.Y.Y.Y.Y.Y.Y.Y.Y.Y.Y.Y.Y.Y.Y.Y.Y.Y.Y.Y.P.Y.Y.Y.Y.Y.Y.Y.",
"Y.Y.Y.Y.Y.Y.Y.Y.Y.Y.Y.Y.Y.Y.P.Y.Y.Y.Y.Y.P.Y.Y.Y.Y.Y.Y.Y.Y.Y.Y.Y.Y.P.Y.Y.P.Y.Y.Y.Y.Y.P.Y.Y.Y.Y.P.Y.Y.Y.Y.Y.Y.Y.Y.Y.Y.P.Y.Y.Y.Y.Y.",
"Y.Y.Y.Y.P.Y.Y.Y.Y.Y.Y.Y.Y.Y.Y.Y.Y.Y.Y.Y.Y.Y.Y.Y.Y.Y.Y.Y.Y.Y.P.Y.Y.Y.Y.Y.Y.Y.Y.Y.Y.Y.Y.Y.Y.Y.Y.Y.Y.Y.Y.Y.Y.Y.P.Y.Y.Y.Y.Y.Y.Y.Y.Y.",
"Y.Y.Y.Y.Y.Y.Y.Y.Y.Y.P.Y.Y.Y.Y.Y.P.Y.Y.Y.Y.Y.Y.Y.Y.P.Y.P.Y.Y.Y.Y.Y.Y.Y.Y.Y.Y.Y.Y.Y.Y.Y.Y.Y.Y.Y.P.Y.P.Y.P.Y.Y.Y.Y.Y.Y.Y.Y.Y.Y.P.Y.",
"Y.Y.Y.Y.Y.Y.Y.Y.Y.Y.Y.Y.Y.Y.Y.P.Y.Y.Y.Y.Y.P.Y.Y.Y.Y.Y.Y.Y.Y.Y.Y.P.Y.P.Y.Y.Y.Y.Y.Y.Y.Y.Y.Y.Y.Y.Y.Y.Y.Y.Y.Y.Y.Y.Y.Y.Y.Y.Y.Y.Y.Y.Y.",
"Y.Y.Y.Y.Y.Y.Y.P.Y.Y.Y.Y.Y.Y.Y.Y.Y.Y.Y.Y.Y.Y.Y.Y.Y.Y.Y.Y.Y.Y.Y.Y.Y.Y.Y.Y.Y.Y.Y.Y.Y.Y.Y.Y.P.Y.Y.Y.Y.Y.Y.Y.Y.Y.Y.Y.Y.Y.P.Y.Y.Y.Y.Y.",
"Y.Y.P.Y.Y.Y.Y.Y.Y.Y.P.Y.Y.Y.Y.Y.Y.P.Y.Y.Y.Y.Y.Y.Y.Y.Y.Y.Y.Y.Y.Y.Y.Y.Y.Y.Y.Y.Y.P.Y.Y.Y.Y.Y.Y.Y.Y.Y.Y.Y.Y.Y.Y.Y.Y.Y.Y.Y.Y.Y.Y.Y.P.",
"Y.Y.Y.Y.Y.Y.Y.P.Y.Y.Y.Y.Y.Y.Y.Y.Y.Y.Y.Y.Y.Y.Y.Y.Y.P.Y.Y.Y.P.Y.Y.Y.Y.Y.Y.Y.Y.Y.Y.P.Y.Y.Y.Y.Y.Y.Y.Y.P.Y.Y.P.Y.Y.Y.Y.Y.Y.Y.Y.Y.Y.Y.",
"Y.Y.Y.Y.Y.P.Y.Y.Y.Y.Y.Y.P.Y.P.Y.Y.Y.Y.Y.Y.Y.Y.Y.Y.Y.Y.Y.Y.Y.Y.Y.Y.Y.Y.Y.P.Y.Y.Y.Y.Y.Y.Y.Y.Y.Y.P.Y.Y.Y.Y.Y.Y.Y.Y.Y.P.Y.P.Y.Y.Y.Y.",
"Y.Y.Y.Y.Y.Y.Y.Y.Y.Y.Y.Y.Y.Y.Y.Y.Y.Y.Y.P.Y.Y.Y.Y.P.Y.Y.Y.Y.Y.Y.Y.Y.P.Y.Y.Y.Y.Y.Y.Y.Y.Y.Y.Y.Y.Y.Y.Y.Y.Y.Y.Y.Y.Y.Y.Y.Y.Y.Y.Y.Y.Y.Y.",
"Y.Y.Y.Y.Y.Y.Y.Y.Y.Y.P.Y.Y.Y.Y.Y.Y.Y.Y.Y.Y.Y.Y.Y.Y.Y.Y.Y.Y.Y.Y.Y.Y.Y.Y.Y.Y.Y.Y.Y.Y.Y.Y.P.Y.Y.Y.Y.Y.Y.Y.Y.Y.Y.Y.Y.Y.Y.Y.Y.Y.Y.Y.Y.",
"P.Y.Y.Y.Y.Y.Y.Y.Y.Y.Y.Y.Y.Y.Y.Y.Y.Y.Y.Y.Y.Y.Y.P.Y.Y.Y.Y.Y.P.Y.Y.Y.Y.Y.Y.Y.Y.Y.Y.Y.Y.Y.Y.Y.Y.Y.Y.Y.Y.Y.P.Y.Y.P.Y.Y.Y.Y.Y.Y.P.Y.Y.",
"Y.Y.Y.Y.Y.Y.Y.Y.Y.Y.Y.Y.Y.Y.Y.Y.Y.Y.Y.P.Y.Y.Y.Y.Y.P.Y.Y.Y.Y.Y.Y.Y.Y.Y.Y.Y.Y.P.Y.Y.Y.Y.Y.Y.Y.Y.Y.Y.Y.Y.Y.Y.Y.Y.Y.Y.Y.Y.Y.Y.Y.Y.Y.",
"Y.Y.Y.Y.P.Y.Y.Y.Y.Y.Y.Y.Y.Y.P.Y.Y.Y.Y.Y.Y.Y.P.Y.Y.Y.Y.Y.Y.Y.Y.Y.Y.Y.Y.P.Y.Y.Y.Y.P.Y.Y.Y.Y.Y.Y.Y.Y.Y.Y.Y.Y.Y.Y.Y.Y.P.Y.Y.Y.Y.Y.Y.",
"Y.P.Y.Y.Y.Y.Y.Y.Y.Y.Y.Y.Y.Y.Y.Y.Y.Y.Y.Y.Y.Y.Y.Y.Y.Y.Y.Y.Y.P.Y.Y.Y.Y.Y.Y.Y.Y.Y.Y.P.Y.Y.Y.Y.P.Y.Y.Y.P.Y.Y.Y.Y.Y.Y.Y.Y.Y.Y.Y.Y.Y.Y.",
"Y.Y.Y.Y.P.Y.Y.Y.Y.P.Y.Y.Y.Y.Y.Y.Y.Y.Y.Y.Y.Y.Y.Y.Y.Y.Y.Y.Y.Y.Y.Y.Y.Y.Y.Y.Y.Y.Y.Y.Y.Y.Y.Y.Y.Y.Y.Y.Y.Y.Y.Y.P.Y.Y.Y.Y.Y.Y.Y.Y.Y.Y.P.",
"Y.Y.Y.Y.Y.Y.Y.Y.Y.Y.Y.Y.Y.Y.Y.Y.Y.P.Y.Y.P.Y.Y.Y.Y.Y.Y.Y.Y.Y.Y.P.Y.Y.Y.Y.Y.Y.Y.Y.Y.Y.P.Y.Y.Y.Y.Y.Y.Y.Y.Y.Y.P.Y.Y.Y.Y.Y.Y.Y.Y.P.Y.",
"Y.Y.Y.Y.Y.Y.Y.Y.Y.P.Y.Y.P.Y.Y.Y.Y.Y.Y.Y.Y.Y.Y.Y.Y.Y.Y.Y.Y.Y.Y.Y.Y.Y.Y.Y.P.Y.Y.Y.Y.Y.Y.Y.Y.Y.Y.Y.Y.Y.P.Y.Y.Y.Y.Y.Y.Y.Y.Y.Y.Y.Y.Y.",
"Y.Y.Y.Y.Y.Y.Y.Y.Y.Y.Y.Y.Y.Y.Y.Y.Y.Y.Y.Y.Y.Y.Y.Y.Y.Y.P.Y.Y.Y.Y.P.P.Y.Y.Y.Y.Y.Y.Y.Y.Y.Y.Y.Y.Y.Y.Y.Y.Y.Y.Y.Y.Y.Y.Y.Y.Y.Y.Y.Y.Y.Y.Y.",
"Y.Y.Y.P.Y.P.Y.Y.P.Y.Y.Y.Y.Y.Y.Y.Y.Y.Y.Y.Y.Y.Y.Y.Y.Y.Y.Y.Y.Y.Y.Y.Y.Y.Y.Y.P.Y.Y.Y.Y.Y.Y.Y.Y.Y.P.Y.Y.Y.Y.Y.Y.Y.Y.Y.Y.P.Y.Y.Y.Y.Y.Y.",
"Y.Y.Y.Y.Y.Y.Y.Y.Y.Y.Y.Y.Y.Y.Y.Y.Y.P.Y.P.Y.Y.Y.Y.Y.Y.Y.Y.Y.Y.Y.Y.Y.Y.Y.Y.Y.Y.Y.Y.Y.Y.Y.Y.Y.Y.Y.Y.Y.Y.P.Y.Y.P.Y.Y.Y.Y.Y.Y.Y.Y.Y.Y.",
"Y.Y.Y.Y.Y.Y.Y.Y.Y.Y.P.Y.Y.Y.Y.Y.Y.Y.Y.Y.Y.Y.Y.P.Y.Y.Y.Y.Y.Y.Y.Y.P.Y.Y.Y.Y.Y.Y.Y.Y.Y.Y.P.Y.Y.Y.Y.Y.Y.Y.Y.Y.Y.Y.Y.Y.Y.Y.Y.Y.P.Y.Y.",
"Y.Y.P.Y.Y.Y.Y.Y.Y.Y.Y.Y.Y.Y.Y.P.Y.Y.Y.Y.Y.Y.Y.Y.Y.Y.Y.Y.P.Y.Y.Y.Y.Y.Y.Y.Y.P.Y.Y.Y.Y.Y.Y.Y.Y.P.Y.Y.Y.Y.Y.Y.Y.Y.Y.Y.P.Y.Y.Y.Y.Y.Y.",
"Y.Y.Y.Y.Y.P.Y.Y.Y.Y.Y.Y.Y.Y.Y.Y.Y.Y.Y.Y.Y.Y.Y.Y.Y.P.Y.Y.Y.Y.Y.Y.Y.Y.Y.Y.Y.Y.Y.Y.Y.Y.Y.P.Y.Y.Y.Y.Y.Y.Y.Y.Y.Y.Y.Y.Y.Y.Y.Y.P.Y.Y.Y.",
"Y.Y.Y.Y.Y.Y.Y.Y.Y.Y.Y.Y.Y.Y.Y.Y.Y.P.Y.Y.Y.Y.Y.Y.Y.Y.Y.Y.Y.Y.Y.Y.Y.Y.Y.Y.Y.Y.Y.Y.Y.Y.Y.Y.Y.Y.Y.Y.Y.Y.Y.Y.Y.Y.Y.Y.Y.Y.Y.Y.Y.Y.Y.Y.",
"Y.Y.Y.Y.Y.Y.Y.P.P.Y.Y.Y.Y.Y.Y.Y.Y.Y.Y.Y.Y.Y.Y.Y.Y.Y.Y.P.Y.Y.Y.Y.Y.Y.Y.Y.Y.Y.Y.Y.Y.Y.Y.Y.Y.Y.Y.Y.Y.Y.P.Y.Y.Y.Y.Y.Y.Y.Y.Y.Y.Y.Y.Y.",
"Y.Y.P.Y.Y.Y.Y.Y.Y.Y.Y.Y.Y.P.Y.Y.Y.Y.Y.Y.P.Y.Y.Y.Y.Y.Y.Y.Y.Y.Y.Y.Y.Y.Y.Y.Y.Y.Y.Y.Y.Y.Y.Y.Y.Y.Y.Y.Y.Y.Y.Y.Y.Y.Y.Y.Y.Y.Y.Y.Y.Y.Y.Y.",
"Y.Y.Y.Y.Y.Y.Y.Y.Y.Y.Y.Y.Y.Y.Y.Y.Y.Y.Y.Y.Y.Y.Y.Y.Y.Y.Y.Y.Y.Y.Y.Y.Y.Y.Y.Y.Y.Y.Y.Y.Y.Y.Y.Y.Y.Y.Y.Y.Y.Y.Y.Y.Y.Y.Y.Y.Y.Y.Y.Y.Y.P.Y.Y.",
"P.Y.Y.Y.Y.Y.Y.Y.Y.Y.Y.Y.Y.Y.Y.P.Y.Y.Y.Y.Y.Y.Y.Y.Y.Y.Y.Y.Y.Y.Y.I.U.J.U.T.Y.Y.Y.Y.Y.Y.Y.Y.Y.Y.Y.Y.Y.Y.Y.Y.Y.Y.Y.Y.Y.Y.Y.Y.Y.Y.Y.Y.",
"Y.Y.Y.Y.Y.Y.Y.Y.Y.Y.Y.Y.Y.Y.Y.Y.Y.Y.P.Y.Y.Y.Y.P.Y.P.Y.Y.Y.Y.Y.A.z.z.h.S.Z.K.U.I.P.J.M.C.J.T.Y.Y.Y.Y.Y.Y.Y.Y.Y.Y.Y.P.Y.Y.Y.Y.Y.Y.",
"P.Y.Y.Y.P.Y.Y.Y.Y.Y.Y.P.Y.Y.Y.P.Y.Y.Y.Y.Y.Y.Y.Y.Y.Y.Y.Y.Y.Y.T.F.| <.-.) / ( ..0.d.{ =.c  .M.I.Y.Y.Y.Y.Y.Y.Y.Y.Y.Y.Y.Y.Y.Y.Y.Y.Y.",
"Y.Y.Y.Y.Y.Y.Y.Y.Y.Y.Y.Y.Y.Y.Y.Y.Y.Y.Y.Y.Y.Y.Y.P.Y.Y.Y.Y.Y.Y.P.Y.T.f./ _ } 9.j.! S A l r *.m i.U.I.Y.Y.Y.Y.Y.Y.Y.Y.Y.Y.Y.Y.Y.Y.P.",
"Y.Y.Y.Y.Y.Y.Y.Y.Y.Y.Y.Y.Y.Y.Y.Y.Y.Y.Y.Y.Y.P.Y.Y.Y.Y.Y.Y.Y.P.P.Y.Y.T.L.6.J ` p.x.;.J 0 5 w 7 v { c.h.A.L.I.I.Y.Y.Y.Y.Y.Y.Y.Y.P.Y.",
"Y.Y.Y.Y.Y.Y.Y.Y.Y.Y.Y.Y.Y.Y.Y.Y.Y.Y.Y.Y.Y.Y.Y.Y.Y.Y.Y.Y.Y.Y.Y.Y.Y.Y.T.Y.V.} H K H y o O w 1 7 d ^ W F ` ..0.M.L.Y.Y.Y.Y.Y.Y.Y.Y.",
"Y.Y.Y.P.Y.Y.Y.P.P.Y.Y.Y.P.Y.Y.Y.Y.Y.Y.Y.Y.Y.Y.Y.Y.Y.Y.Y.Y.Y.Y.Y.Y.Y.P.P.T.I.b.Q v g % O 5 w 5 i T D.b.7.[ G Q n.T.P.Y.Y.Y.Y.Y.Y.",
"Y.Y.Y.Y.Y.Y.Y.Y.Y.Y.Y.Y.Y.Y.Y.Y.P.Y.Y.Y.Y.Y.Y.Y.Y.Y.P.Y.Y.Y.Y.Y.Y.Y.Y.Y.Y.N.o.3.N q q % < w 9 1 w y.T.I.I.F.F.L.Y.Y.Y.Y.Y.Y.Y.Y.",
"Y.Y.Y.P.Y.Y.Y.Y.Y.Y.Y.Y.P.Y.Y.Y.Y.Y.Y.Y.Y.Y.Y.Y.Y.Y.Y.Y.Y.Y.Y.Y.Y.Y.Y.T.Y.s.;.2.<.d 5 4 4 e e 9 2 x B.T.P.P.Y.Y.Y.Y.Y.Y.Y.Y.Y.Y.",
"Y.Y.Y.Y.Y.Y.P.Y.Y.P.Y.Y.Y.Y.Y.Y.Y.Y.Y.Y.P.Y.Y.Y.Y.Y.Y.Y.Y.Y.P.Y.Y.Y.Y.Y.Y.n.N =.c w 4 + @ t t e 7 i e.T.T.P.P.Y.Y.Y.Y.Y.Y.P.Y.Y.",
"Y.Y.Y.Y.Y.Y.Y.Y.Y.Y.Y.Y.Y.Y.Y.Y.P.Y.Y.Y.P.Y.Y.Y.Y.Y.Y.Y.Y.Y.Y.Y.Y.Y.Y.Y.Y.f.1.1.N c w + + w u t 9 8 [ g.U.T.T.Y.Y.Y.Y.Y.Y.Y.Y.Y.",
"Y.Y.Y.Y.Y.Y.Y.Y.Y.Y.Y.Y.Y.Y.Y.Y.Y.Y.Y.Y.Y.Y.Y.Y.P.Y.Y.Y.Y.Y.Y.Y.Y.Y.Y.Y.L.x.:.B s 9 9 + O < u u 9 5 y k W l.Z.Y.Y.P.Y.P.Y.Y.Y.Y.",
"Y.P.Y.Y.P.Y.Y.Y.Y.Y.Y.Y.Y.Y.Y.Y.Y.Y.Y.Y.Y.Y.Y.Y.Y.Y.Y.Y.Y.Y.Y.Y.Y.Y.Y.Y.A.' &.s 9 O + @ O + w r e 2 h Y ~ d 7.I.Y.Y.Y.Y.Y.Y.Y.Y.",
"Y.Y.Y.Y.Y.Y.Y.Y.Y.Y.Y.Y.Y.Y.Y.P.Y.Y.Y.Y.Y.Y.Y.Y.Y.P.Y.Y.P.Y.Y.Y.Y.Y.Y.Y.a.*.f e 9 1 + + X 9 w w w 3 g m.H.e.m.Y.Y.Y.Y.Y.Y.Y.Y.Y.",
"Y.Y.Y.Y.Y.Y.Y.Y.Y.Y.P.Y.Y.Y.Y.Y.Y.P.Y.Y.P.Y.Y.Y.Y.Y.Y.Y.Y.Y.Y.Y.Y.Y.T.L.k.#.c f r 9 + X O r s r w e 3 q.T.T.Y.Y.Y.Y.Y.Y.Y.Y.Y.Y.",
"Y.Y.Y.Y.Y.Y.Y.Y.Y.Y.Y.Y.Y.Y.Y.Y.Y.Y.Y.Y.Y.Y.Y.Y.Y.Y.Y.Y.Y.Y.Y.Y.Y.Y.Y.J.j.#.c u w < O X + s c d r e 3 P G.T.Y.P.Y.Y.Y.Y.Y.Y.Y.Y.",
"P.Y.P.Y.Y.Y.Y.Y.Y.Y.Y.Y.Y.P.Y.Y.Y.Y.Y.Y.Y.Y.Y.Y.P.Y.P.Y.Y.Y.Y.Y.Y.Y.T.L.j.#.c s w < < O 4 c f f u e p q y.T.P.Y.Y.Y.Y.Y.Y.Y.Y.Y.",
"Y.Y.Y.Y.Y.Y.Y.P.Y.Y.Y.Y.Y.Y.Y.Y.P.Y.Y.Y.P.Y.Y.Y.Y.Y.Y.Y.Y.Y.Y.P.Y.Y.Y.Y.u.+.m B d e w < < b b f s u u 6 5.L.T.Y.Y.Y.Y.Y.Y.Y.Y.Y.",
"Y.Y.Y.Y.Y.Y.Y.Y.Y.Y.Y.Y.Y.Y.Y.Y.Y.Y.Y.Y.Y.Y.Y.Y.Y.Y.Y.Y.Y.Y.Y.Y.Y.Y.Y.T.m.C %.D n b s w 9 n M f d u t 6 L N.T.Y.Y.Y.Y.Y.Y.Y.Y.Y.",
"Y.Y.Y.Y.Y.Y.Y.Y.P.Y.P.Y.Y.Y.Y.Y.Y.Y.Y.Y.Y.Y.Y.Y.Y.Y.Y.Y.Y.Y.Y.Y.Y.Y.Y.Y.L.6.@.D D M c c s B B M f s t i z v.T.Y.Y.Y.Y.Y.Y.Y.Y.Y.",
"Y.Y.Y.Y.Y.Y.Y.Y.Y.Y.Y.Y.Y.Y.Y.Y.Y.Y.Y.P.Y.Y.Y.Y.Y.Y.Y.Y.Y.Y.Y.Y.Y.Y.Y.Y.T.n.b %.B N b D n n B M f f s p y t.T.Y.Y.Y.Y.Y.Y.Y.Y.P.",
"Y.Y.Y.Y.Y.Y.Y.Y.Y.Y.P.Y.Y.Y.Y.Y.Y.Y.Y.Y.Y.Y.P.Y.Y.Y.Y.Y.Y.Y.Y.Y.Y.Y.Y.Y.Y.J.] +.=.D B ,.n d B b c f s a 8 w.T.I.Y.Y.Y.Y.Y.Y.Y.Y.",
"Y.P.Y.Y.Y.Y.P.Y.Y.Y.Y.Y.Y.Y.Y.Y.Y.Y.Y.P.Y.Y.Y.Y.Y.Y.Y.Y.Y.Y.Y.Y.Y.Y.Y.Y.Y.I.N.C #.>.,.D c s s f f f f s 3 Y Y.Y.Y.P.Y.Y.Y.Y.Y.Y.",
"Y.Y.Y.P.Y.Y.Y.Y.Y.Y.Y.Y.Y.Y.P.Y.Y.Y.Y.Y.Y.Y.Y.Y.Y.Y.Y.Y.Y.Y.Y.Y.Y.Y.Y.Y.Y.Y.Y.w.b =.D N M f u y y y y y 3 U L.T.Y.Y.Y.Y.Y.Y.Y.Y.",
"Y.Y.Y.Y.Y.Y.Y.Y.Y.Y.P.Y.Y.Y.Y.Y.Y.Y.Y.Y.Y.Y.P.Y.Y.Y.Y.Y.Y.Y.Y.Y.Y.Y.Y.Y.Y.Y.T.Y.8.$.-.N v l j = ; ; & * , Y L.Y.Y.Y.Y.Y.Y.P.Y.Y.",
"Y.Y.Y.Y.Y.Y.Y.Y.Y.Y.Y.Y.Y.Y.Y.Y.Y.Y.Y.Y.Y.Y.Y.Y.Y.Y.Y.Y.Y.Y.Y.Y.Y.Y.Y.Y.Y.Y.Y.Y.L.^ %.V ! ( R : ; ; ; & $ I D.T.Y.Y.Y.Y.Y.Y.Y.Y.",
"Y.Y.Y.Y.Y.Y.Y.Y.Y.Y.Y.Y.Y.Y.P.Y.Y.Y.Y.Y.Y.Y.Y.Y.Y.Y.P.Y.Y.Y.Y.Y.Y.Y.Y.Y.Y.Y.Y.Y.I.u.r Z O.E.( > : : ; * # = r.T.Y.Y.Y.Y.Y.Y.Y.Y.",
"Y.Y.P.Y.Y.P.Y.Y.Y.Y.Y.Y.Y.Y.Y.Y.Y.P.Y.Y.Y.Y.Y.Y.Y.Y.Y.Y.Y.Y.Y.Y.Y.Y.Y.Y.Y.Y.Y.Y.Y.v.- E R.W.X.> * . .     $ 4.Y.Y.Y.P.Y.Y.Y.Y.Y."
};
