/* XPM */
static char *result[] = {
/* columns rows colors chars-per-pixel */
"64 64 181 2 ",
"   c #020101",
".  c #0C0D0A",
"X  c #100F0D",
"o  c #1B1007",
"O  c #13120E",
"+  c #141212",
"@  c #1C1919",
"#  c #390F03",
"$  c #361207",
"%  c #33140B",
"&  c #3B160C",
"*  c #3D180E",
"=  c #2A221A",
"-  c #3B2617",
";  c #232424",
":  c #282624",
">  c #2C2C2A",
",  c #352D29",
"<  c #36312C",
"1  c #2B3032",
"2  c #2E323F",
"3  c #333334",
"4  c #393633",
"5  c #32393B",
"6  c #3D3C3A",
"7  c #431402",
"8  c #4B1402",
"9  c #461C0F",
"0  c #4C1E0E",
"q  c #561A05",
"w  c #5D1D03",
"e  c #441C11",
"r  c #481E12",
"t  c #421D18",
"y  c #5B210B",
"u  c #552415",
"i  c #5A2615",
"p  c #572815",
"a  c #5F2917",
"s  c #57271A",
"d  c #512A1C",
"f  c #5D2A1A",
"g  c #64230A",
"h  c #6D2608",
"j  c #672C17",
"k  c #6C2C12",
"l  c #632C1C",
"z  c #6B301F",
"x  c #7A361C",
"c  c #462B23",
"v  c #4B2B29",
"b  c #453329",
"n  c #5A3326",
"m  c #55372C",
"M  c #482F33",
"N  c #563C32",
"B  c #653223",
"V  c #6B3321",
"C  c #6A3A2B",
"Z  c #723625",
"A  c #743927",
"S  c #793924",
"D  c #753B29",
"F  c #7A3D2A",
"G  c #554738",
"H  c #6B412D",
"J  c #7E422D",
"K  c #674337",
"L  c #784A37",
"P  c #7D513B",
"I  c #383F47",
"U  c #433E4B",
"Y  c #23425D",
"T  c #3C4855",
"R  c #204668",
"E  c #384568",
"W  c #3C486B",
"Q  c #3C556F",
"!  c #2C4E77",
"~  c #314973",
"^  c #3A517C",
"/  c #434344",
"(  c #4C4B4A",
")  c #4A4057",
"_  c #4C5254",
"`  c #575659",
"'  c #60454C",
"]  c #65574B",
"[  c #6D544C",
"{  c #725344",
"}  c #6C5454",
"|  c #635C5C",
" . c #695B5B",
".. c #43586D",
"X. c #5B5C69",
"o. c #4B5877",
"O. c #595F72",
"+. c #59667C",
"@. c #646464",
"#. c #6C6C6B",
"$. c #6A6675",
"%. c #6F7473",
"&. c #727272",
"*. c #7C7C7C",
"=. c #873510",
"-. c #813E22",
";. c #854122",
":. c #83432E",
">. c #9D542C",
",. c #844931",
"<. c #824B34",
"1. c #8A4C33",
"2. c #8F533A",
"3. c #8B6353",
"4. c #837F7A",
"5. c #2B5085",
"6. c #375281",
"7. c #3D5A82",
"8. c #2B5A93",
"9. c #335E92",
"0. c #365E97",
"q. c #3A6394",
"w. c #35649A",
"e. c #3D6A9E",
"r. c #1D5CA2",
"t. c #215BA3",
"y. c #1E66B5",
"u. c #1E6BBD",
"i. c #2863A5",
"p. c #2B66AA",
"a. c #3A6BA3",
"s. c #326DAE",
"d. c #3F72A3",
"f. c #246AB4",
"g. c #3973B1",
"h. c #3978BC",
"j. c #42638C",
"k. c #48698D",
"l. c #556B88",
"z. c #486995",
"x. c #4D6F9A",
"c. c #516E93",
"v. c #4E729C",
"b. c #50739C",
"n. c #6E7A8F",
"m. c #617C9F",
"M. c #426FA1",
"N. c #4774A7",
"B. c #4973A5",
"V. c #5177A4",
"C. c #557EAB",
"Z. c #1469C2",
"A. c #1C6DC3",
"S. c #126BCA",
"D. c #0F71CB",
"F. c #0B75DA",
"G. c #1574D4",
"H. c #1A75D5",
"J. c #1274D9",
"K. c #1779DD",
"L. c #257BD4",
"P. c #0477E5",
"I. c #0C7AE6",
"U. c #067DEC",
"Y. c #0B7CEB",
"T. c #137AE3",
"R. c #057EF5",
"E. c #097FF4",
"W. c #017FFD",
"Q. c #0880EA",
"!. c #1484EF",
"~. c #0581F4",
"^. c #0A81F4",
"/. c #0080FF",
"(. c #0882F8",
"). c #008AFF",
"_. c #868686",
"`. c gray54",
"'. c #989897",
"]. c #A2A1A1",
"[. c #B1B2B4",
/* pixels */
"/././././././././././././././././././././././././././././././././.W.W./././././././././././.W./././././././././././././././././.",
"/././././././.W./././././././././.W./././././././.W./././././././././././././././././././.W./././././././././.W././././././.W./.",
"/./././././.W././././.W././.W./././././././././.W././././././././././././././././././././././././././././././.W././././././././.",
"/.W././././././././././././././././././.W././././././././.W./././././././././.W.W./././././././././.W././././././././.W././././.",
"/./././././././././././././.W./././.W./././././././././././././././././././././././././././././././././././././././././././.W./.",
"/././././././././././././././././././././././././././././././././././.W././.W././.W././././././././././././././././././././././.",
"/./.W./././././././././././././././././././.W././././.W././.W./././././././././././././.W./././././.W./.W././././.W././././././.",
"/./././.W././././.W.W./././././././././.W././././././././././././././././././././././././././././././././././././././.W././././.",
"/./././././.W./././././././././././././././././.W./././././././.W./././././././.W././././././.W././././././.W./././././././././.",
"/./././././././././././././.W./.W././././././././././././././././././././././././././././././././././././././././././././././.W.",
"/././.W./././././././././././././././././././././././././.W./././.W././././././././././././.W./././.W./././././././././././././.",
"/././././././././././.W./././././././././.W./././././././././.W././././././.W././.W././././././.W././././././././././.W././././.",
"W./././.W./././././././././.W./././.W././././././././././././././././././././././././././././././././././././././././././.W././.",
"/././././././././././././././././././././././././././.W././././././././././././././././././././././././.W./././././././././././.",
"/././././././././.W./././././././././././././.W././././././././././././././././././././././././././././././././.W./././././././.",
"/.W./././././././././.W./././././././.W./././././././././.W./././././.W./.W././././.W././.W./././.W./././././././././.W././././.",
"/././././././././././././././././././././.W././.W./././././././.W././././././././././././././././././././.W././././././././.W./.",
"/././././././.W././.W./././././././././././././././././././././././././././././.W./././././././././././././././././././././././.",
"/././././././././././././././././././././././././././././.W././././././././././././././././.W./././.W./././././././.W./././././.",
"/./.W././././././././.W./././.W./.W./././././././././././././././././././.W.W././././././.W././././././././././././././././././.",
"/././././././././././././././././.W././.W./././././././././././././././././././././././././././././././././.W./.W./././././././.",
"/././././.W././././././././.W././././././././././././.W./././.W././.W././././././././././././././././././.W././././././.W./././.",
"W././././././././././././././././././././././././././.W././././././././././././././.W./././././././././././././././././.W./././.",
"/./././.W././././.W./././././././././././.W./././././././././././././././.W././././././.W./././.W./././././././././././././././.",
"/././././.W././././././.W././././././././././././././.W././././././././.W./././././.W./././././././././././././././././././.W./.",
"/././././././././././././././././././.W./.W./././././././.W././././././././././././././././././././././././././././././././././.",
"/./.W./././././././.W./././././././././././././././././././././.W././././.W././././././././.W./.W././././././.W./.W././././././.",
"/././././././././././././././././././././././././././././././././././././././././././././././././././.W././././././././././././.",
"/./././././.W././././././.W.W././././.W././././././.W./././././././.W././././././././.W././.W./././././././././.W./././.W./././.",
"/././././.W./././././././././././.W./././././.W./.W././././././././././././././././././././././././././././././././././././././.",
"/./././././././.W././././././././././././././././././././././.W././././././././././.W././././././././.W.W././././././././.W././.",
"W././././././././././././././././././././././././././././././././././././././.W././././././././././././././././././././././././.",
"/./././././././././././././././././././././././././././././././././././.W./././././.W././././././././.W././././././././././././.",
"/./././././././././././././././././././././././././././././././.W././././././././././././././././././././.W././././././.W./././.",
"W./././././.W./././././././././././././././././././././././././././././././././././././././.W./././././././././.W./././.W./././.",
"/./././.W././././././././././././././././././././././././././././././././.W././././././././././././././././././././././././././.",
"/./././././././././././././././././././././././././././.W.W./././././././././././././.W././././././.W./././././././././././././.",
"/./././././././././././././././././././././././././././.W.W./././././././././././././././././././.W././././././././.W./././././.",
"/./.W./.W././././././././.(././././././././././././././.E.E.T.H.Y././././././.W.W././././././././././././././.W././././././././.",
"/././././././././././././.(.^.^.^.^.^.~.Q.^.^.^.^.^.^.^.A.z.} x o.I.(.(.(.E.^.^.^.^.E.E.E.^.^.R./././././././././././././././.W.",
"/./././././././././././.^.h.v.B.B.B.B.e.q.q.j.z.z.v.v.c.3.>.k q k  .V.C.C.V.V.b.b.B.v.v.x.C.m.H.R./././././././././././.W./././.",
"/././././.W././././././.R.F.u.A.A.A.A.A.u.u.8.9.9.q.q.w.p.I u u l -.S Z J } j.a.a.z.e.e.s.N.x.G././././././././././././././././.",
"/./././.W./././././././././././.)././././.).)./.)././.).).F.U q a V D l 0 B ' 6.P.)./.!.L.g.n.k.Y./././.W./././.W././././.W././.",
"W./././././././././././././././././././././././././.R.s.j.i.W s y u z J V c C P  .l.|  . .` +.s.R././././././.W././././././././.",
"/././././././././././././././././././.)./.~.R.I.K.L.$.2.<.<.P K n p i l -.{ N v d p M G.Y.R.^.(././././././././././.W./././././.",
"/.W././././././././././././.^.K.!.g.M.k.+. .} { [ [ { K m m v c - e u z -.2.J f l a q E R./././././././././././././././././././.",
"/./././././././././././.Y.q.X.+. .O.j.^ 7.p.p.f.H.f.n 7 * & % % % % r z Z V V F ,.2.F i S./././././././././././././././././././.",
"/./././././.W./././././.~.J.G.T.K.I.Y.U.U.~.~./././.! t # % % % % % % f D Z Z D F 2.,.k t./././././././././.W././././././././.W.",
"/./.W./././././././././.W././././././././././././.).Q.0.{ 9 $ & % % % s F J :.:.D D F x E (././././././././././././././././././.",
"/././././././././././././././././././././././././././.a.=.w $ & & % % r V Z D D A Z A S f G././././././././././././././././././.",
"/././././.W././.W././././././././.W./././././././././.J.^ v 7 $ % % % % u l l f l Z F A k W (./././././././././././././././././.",
"/./././././././././././././././././././././././././././.R.Z.4 8 % % % % * a a u i V D A j p S./././././././././././././././././.",
"/.W.W./././././././././././././.W./././././././././././.).).u.M 8 * % % & u a s i l D D V h E /././././././././././././././././.",
"/./././././././././././././././././././././././././././././.).y.v 8 & * e u i i i f z D F S l Z././././././././././././././././.",
"/./././././././././././././././././././././././././././././.)./.E w 9 e u l l i l l l F ;.1.=.) Q./././././././././././././././.",
"/././././././.W./././././././././././././.W.W././././././././.).t.f w r f Z V a l z A D H L H y r.(././././././././././././././.",
"/./././././././././././././././././././././././././././././././.R.8.u w f V V f l V C N ] ` / c T D.(./././././././././././././.",
"/././.W./.W./././././.W./././././.W./././././././././././././.W././.5.g k l i i f b , I %.'.%._ G Q U.)././././././././././././.",
"/./././././././././././././.W./././././.W./././././././././.W././.).I.~ s y u d , 1 3 / %.].'.@.( G f.Q.Q.^././././././././././.",
"/././././././././././././././././././././././././././././././././././.).r.v y , 1 4 5 3 ( %.'.*./ < T ! z.N.!.(./././././.W././.",
"/././././.W./././././././././.W./.W./././././././././././././././././.).).Z.2 : < 3 3 : 1 ` #._.#.1 = o - { d.Q././././././././.",
"W././././././././././././././././././././././././././././././././././././.Q.R = 1 1 @ @ 6 `./ *.*.( @ . : < ..!.!.(././././././.",
"W./././././././././.W./././././././././././././././././././././././././.(.F.5 = ; + O b < ` 3 &.`.@.3   @.[.4.] @.d.Q././././.W.",
"/././././././././.W./././././././././././.W./././././././././././././././.F.Y - + X + o . O / &._.@.6 O > @.5   o , i./././././."
};
