/* XPM */
static char *result[] = {
/* columns rows colors chars-per-pixel */
"64 64 186 2 ",
"   c #020201",
".  c #0B0807",
"X  c #0D0D0B",
"o  c #1E0A03",
"O  c #110F0E",
"+  c #18110B",
"@  c #0C131B",
"#  c #151312",
"$  c #1B1A19",
"%  c #250200",
"&  c #220D05",
"*  c #290E05",
"=  c #310F05",
"-  c #3C0C00",
";  c #2B110A",
":  c #351105",
">  c #33130C",
",  c #3B180E",
"<  c #221E1C",
"1  c #361A17",
"2  c #3C1A11",
"3  c #36240F",
"4  c #29241C",
"5  c #3D2717",
"6  c #242423",
"7  c #2A2725",
"8  c #2B2927",
"9  c #2C2C2B",
"0  c #302A24",
"q  c #352D29",
"w  c #382E30",
"e  c #2B3133",
"r  c #343434",
"t  c #393736",
"y  c #480C00",
"u  c #45170A",
"i  c #411A0E",
"p  c #511906",
"a  c #461D12",
"s  c #5A220E",
"d  c #4B2214",
"f  c #48281B",
"g  c #542414",
"h  c #5A2615",
"j  c #5E2917",
"k  c #5A2819",
"l  c #69280E",
"z  c #752D0F",
"x  c #642913",
"c  c #6E2C13",
"v  c #632D1C",
"b  c #722E12",
"n  c #68301F",
"m  c #462B24",
"M  c #582C24",
"N  c #493B2E",
"B  c #52352B",
"V  c #5C3428",
"C  c #4C2E30",
"Z  c #463C38",
"A  c #593C37",
"S  c #643424",
"D  c #6C3322",
"F  c #663628",
"G  c #673A2A",
"H  c #753724",
"J  c #753926",
"K  c #783C26",
"L  c #753A29",
"P  c #7A3D2A",
"I  c #45433F",
"U  c #564637",
"Y  c #7B4625",
"T  c #7E412D",
"R  c #7C4A2B",
"E  c #644232",
"W  c #6C4536",
"Q  c #714639",
"!  c #0A2B47",
"~  c #3B3243",
"^  c #293554",
"/  c #3B3E59",
"(  c #4D3D43",
")  c #1E4977",
"_  c #214670",
"`  c #2B4875",
"'  c #314975",
"]  c #355379",
"[  c #484748",
"{  c #4E4E4E",
"}  c #554B4D",
"|  c #484C5E",
" . c #4C5257",
".. c #515252",
"X. c #575259",
"o. c #5C5C5C",
"O. c #664E46",
"+. c #695249",
"@. c #6D5348",
"#. c #7D5643",
"$. c #77574A",
"%. c #645452",
"&. c #665858",
"*. c #6A5C5C",
"=. c #41526C",
"-. c #4B546A",
";. c #4F586D",
":. c #595A66",
">. c #4F5D77",
",. c #565671",
"<. c #765D63",
"1. c #59647A",
"2. c #656565",
"3. c #6B6664",
"4. c #64696A",
"5. c #6B6B6D",
"6. c #757676",
"7. c #7A7A7A",
"8. c #813617",
"9. c #803F2B",
"0. c #82442D",
"q. c #824630",
"w. c #864A34",
"e. c #8B4D34",
"r. c #8C4F38",
"t. c #8F533B",
"y. c #94553C",
"u. c #9A5C42",
"i. c #956B54",
"p. c #A36348",
"a. c #1E4F8A",
"s. c #1D5899",
"d. c #294E86",
"f. c #2D5688",
"g. c #345889",
"h. c #275A98",
"j. c #225B9D",
"k. c #375F94",
"l. c #185EAC",
"z. c #1E61AF",
"x. c #1669B9",
"c. c #2B68A5",
"v. c #206ABA",
"b. c #3D75B0",
"n. c #3977B4",
"m. c #4D5E86",
"M. c #526682",
"N. c #586781",
"B. c #5F7486",
"V. c #466993",
"C. c #4C6E97",
"Z. c #4879AB",
"A. c #0A69C8",
"S. c #1A6FC4",
"D. c #116DC9",
"F. c #1473CF",
"G. c #1E74CC",
"H. c #0A6DD5",
"J. c #0B72D5",
"K. c #0673DF",
"L. c #0C73DB",
"P. c #1E77D3",
"I. c #1E79D4",
"U. c #1779DD",
"Y. c #2F75C1",
"T. c #2478CA",
"R. c #0675E4",
"E. c #0578E6",
"W. c #0C7AE7",
"Q. c #0376E9",
"!. c #047CEE",
"~. c #157DE4",
"^. c #127EEC",
"/. c #037CF4",
"(. c #0A7EF1",
"). c #017FFD",
"_. c #2480DF",
"`. c #0580F5",
"'. c #0A81F5",
"]. c #0080FF",
"[. c #0D87F9",
"{. c #0089FF",
"}. c #0092FF",
"|. c #848484",
" X c #9B9B9B",
".X c #A1A09D",
/* pixels */
"].].].].].].].].].].].].].].).].).].].].].].].].].].].].].].].].].].].].].].].).].).].].].].].].].].].].].].].].].].].].].].].].",
"].].].].].].].].].).].].].].].].].].].].].].].).].].].].].].].].).].].].].].].].].].].].].].).].].].].].].].].].].].].].].].].).",
"].).].].].].].].].].].].].].].].].].].].].].].].).].].].].].).].].].].].].].].].].].].].].].].].).].].].].].).].).].].].].].].].",
"].].].].].].].).].].].].].].].].].].].].].].].].].].].].].].].].].].].].].].].].].].].].].].].].].].].].].].].].].].].].].].].].",
"].].].).].].].].].].].].].].].].].].].].].].].].].].].].).].].].].).].].].].].].].].].].].].].].].].].].).].].].].).].].].].].].",
"].].].].].].].].].).].].].].].).).].].].].].).].].].].].].].].].].].].].].].).].).].].].].].).].].].].].].].].].].].].].].].).].",
"].].].].].].].].].].].].].].].].].].].].].].].].].].].].].].].].].].].].].].].].].].].].].].].].].].].].].].].].].].].].].].].].",
"].].].].].].].].].].].].].].].].].].].].].].].].].].].].].].].].].].].].].].].].].].].].].].].].].].].].].].].].].].].].].].].].",
"].].].].].].].].].].].].].].].].].].].].].].].].].].].].].].].].].].].].].].].].).].].].].].].].].].].].].].].].].].].].].].].].",
"].].].].].].].].].].].].].].].].].].].].].].].].].].].].].].].].].].].].].].].].].].].].].].].].].].].).].].].].].].].].].].].].",
"].].).].].].].].].].].].].].].].].].].].].].].].].].].].).].].].].].].].].].].].].].].].].].].].].].].].].].).].].].].).].).].].",
"].].].].].].).].].].).].].].).].].].).].).].].].].).].].].].].].].].).].].].].].].].].].).].].].].].].].].].].].].].].].].].].].",
"].].).].].].].].].].].].].].].].].].].].].].].].].].].].).].].].].].].].].].).].].].].].].].].].].].].].].].].].].].].].].].].].",
"].].].].].].].].].].].].].].].].].].].].].].].].].].].].].].].].].].].).].].].].].).].].].].].].].].].).].].].].].].].].].].].].",
"].].].].].].].].].].].].].).].].].].].).].].].].].].].].].].].].].].].].].].].].].].].].).].].].].].].].].].].].].].].].].].].].",
"].].].].].].].].).].].].].].].].].].].].].].].).].].].].].].].].].].].].].].].].].].].].].].].].].].].].].].].).].].].].).].].].",
"].].].].].].].].].].].].].].].).].].].].].].].].].].].].].].].].].].].].].].].].].].].].).].].].].].].].].].].].].].].).].].].].",
"].].].].].].].].].].).].].].].].].].].].).].].].].].].].].].].].].].].].].].].].].].].].].].].].].].].].].].).].].].].].].].].].",
"].].].].].].).].].].].].].].].].].].].].].].].].].).].].].].).].].].].].].].].].).].].].].].].].].].).].].].].].].].].].].].].].",
"].).].].].].].].].].].].].].].].].].].].].].].].].].].].].].].].].].).].].].].].].].].].].].].].].].].].].].].].].].].].].].].].",
"].].].].].].].].].].).].).].].].].].].).].).].].].].].].].].].].].).].].].].].).].].].].].].].].].].].].].].].].].].].].].].].].",
").].].].].].].].].].].].].].].].].].].].].].].].].].].].].].].].].].].].].].].].].].].].].).].].].].].].].].].].].].].].).].].].",
"].].].].].].].].].].].].].].].].].].].].].].].].].].].].].].].).].].].].].].].].].).].].].].].].].].].].].].].).].].).].].].].].",
"].].].].].].].).].].].].].].].].].].].].].].].].).].].].].].].].].].].].].].].].].].].].].].].].].].).].].].].].].].].].].].].].",
"].].].].].].].].].).].].].].].].].].].].].].).].].].].].].].].].].].].].].].].].].].].].].].].].].].].].].].].].].].].].].].].].",
"].].].].].].].].].].].].].).].].].].].).].].].].].].].].].].].].].].].].].].].).].].].].].].].].].].].].].].].].].].].].].].].).",
"].).].].].].].).].].].].].].].].].].].].].].].].).].].].].].].).].].].].].].].].].].].].].].].].].].].].].).].].).].].].].].].].",
"].].].].].].].].].].].].].].].].].].].].].].].].].].].].].].].].).].].].].].].].].).].].].).].].).].].].].].].].].].].].].].].].",
"].].].).].].].].].].].].].].].].].].].].].].].].].].].).].].].].).].].].].].].].].].].].].].].].].].].].].).].].).].].].].].].].",
"].].].].].].].].].].].].].].].].].].].].].].].].].].].].].].].].].].].].].].].].].].].].].].].].].].].].].].].].].].].].].].].].",
"].].].].].].].].).].].].].].].].].].).].].].].].].].].].].].].].].].].].].].).].].].].].].].].].].].].].].].].].].].].].].].).].",
"].].].].].].].].].].].].].).].].].].].].].].].).].].].].].].].].].].].].].].].].].].).].].].).].].].].].].].].].].].].].].].].].",
"].].].).].].].].].].].].].].].].].].].].].].].].].].].].].].].].].].].].].].].].].].].].].].].].].].].].].].].].].].].].].].].].",
"].].].].].].].].].].].].].].].].].].].].].].].].].].).].].].].].].].].).].].].].].].].].].].).].].].].].].].].].].].].].].].].).",
"].].].].].].].).].].].].].].].].].].].].).].].].].].].].].].].].].].].].).].].].].].].].].].].].].].].].].].].].].].].].].].].].",
"].].].].].].].].].].].].].].].].].).].].].].].].].].].].].].].].].].].].].].].].].].].].].].].].).].].].].].).].).].].].].].].].",
"].].].].].].].].].].].].].].].].].].].].).].].].].].].].].].].].].].].].].].].].].].].].].].].].].].].].].).].].).].].].].].].].",
"].].).].].].].].].].].].].].].].].].].].].].].].].].].].].].].].].].].].].].].].].].].].].].].).].].].].].].].].].].].].].].].].",
"].].].].].].].).].].].].].].].].].].].].].].].].].].).].].].].].].].].].].).].^.~.).].].].].].].].].].].].].].].].].].].].].).].",
"].].].].].].].].].].].].].].].].).].].].].].].].].].].].].].].].].].].].].!.T.1.B.L.].].].].].].].].].].].].].].].].].].].].].].",
"].].].].].].].].].].].].].].].].].].].].].].].].].].].].].].].].].].].'.T.1.O.=.D.).].].'.^.(.).].].].).].].].].].].].].].].].].",
"].].].].].].].].].].].].].].].].].].].].).].].].].].].].'.'.'.].].`.I.1.@.] H.].].{.`.I.C.i.V.(.].].].].].].].].].].].).].].].].",
"].].].].].].].].].].].].].].].].].].].].].].].].].].].).m.w.,.L.~.M.%.] H.].].].W.Z.5.@. .j.J.].].].].].].].].).].].].].).].].].",
"].].).].].].].).].].].].].].].].].].].].].].].].].].I.M.L b K #.@.( s.J././._.C.*.+.] A./.{.].].].].].].].].].].].].].].].].].].",
"].].].].].].].].].].].].].].].].].].].].].).].].].U.A p a v T t.r.S k Q <.3.+.A s./.].].].].].].].].].].].].].].].].].].].].].].",
"].].].].].].].].].].].].].].].].].].].].].].].].]./.( d 1 a x K y.y.u.i.#.G t.t.<.k.(.].].].].].].].].].].].].].].].].].].].].].",
"].].].].].].].].].].].].].].].].].].].].].].].].(.C.@.V d > , v P y.p.u.w.w.u.p.p.r.O.L.].].].].].].].].].].].).].].].].].].].].",
"].).].].].).].].].].].].].].].].].].].].].].'.b.&.} Z G S B m 2 g J T L P q.w.u.u.9.b z.`.].].].].].].].].].].].].].].].).].].].",
"].].].].].].].].].].].].].].].].].].].].{.b.:.} -.V.4.$.Q m ; o * g L q.t.e.0.w.e.P l d.[.].].].].].].].].].].].].].].].].].].].",
"].].].].].].].].].].].].].].).].].].'.Y.>.O.&.*.&.X.} W S , o o & , D q.e.t.w.T 0.P c / {.].].].].].].].].].].].].].].].].].].].",
"].].].].].].].].].].].].].].].].).Y.N.$.R R X.-.g.S.d.M u * & ; ; , k D L T T T T L H V R.].].].].].].].].].].].].].].].].].].].",
"].].].].].].).].).].].].].].`.n.4.#.Y E | k.v.D.Q.].K.A y % * > > > d j j v D L T L J b ' ].].].].].].].].].].].].].].].].].].].",
").].].].].].].].].].].].].].S.O.&.;.f.x.J./.].].].].].g.~ 7 = : > ; , d g k j D L L L H x j.].].).].].].].].].].].].].].].].].].",
"].].].].].).].].].].].].].].L.h.F.E.].{.{.{.].].].].].E.J.D.^ - : > > i g g g g v D T w.8.M L.{.].].].].].].].].].].].].].].].].",
"].].].].].].].].].].].].].].].{.].{.].].].].].].].].].{.{.}.J.w y ; > g v g g g j v 0.e.w.z ` `.].].].].].].].].].].].].].].].].",
"].].].].].].].].].].].].].].].].].].].].].].].].].].].].).].{.l.1 - , v J j g g j n F W @.U f ) E.].].].].].].].].].].].].].].].",
"].].].].].].].].].].].].].].].].].].].].].].].].].].].].].].].].a.u p n J D j h k B t ..6.4.I N ] K.].].].].].].].].].].].].].].",
"].].].].].].].].].].].].].].].].].].].].].].].].].].].].].].].{./.` p l H S h f q e r 2. X.X4.{ U c.{.{.].].].].].].].].].].].].",
"].].].].].].].].].].].].].].].].].).].].].].].].].].].].].].].).].`.` s c s d 9 e t t { 7..X|.{ U ' x.G._.[.].].].].].].].].].].",
"].].).].].].].].].].].].].].].].].].].].].].).].].].].].].].].].].{.].h.C d 6 e r r r e { 6.|.4.q 0 0 N 3.b.`.].].].].].].].].].",
"].).].].].].].).].].].].].].].].].].].].].].].].].].].].].].].].].].{.{.K._ 4 9 r 9 < 6 4.o.6.|...6 + X 5  .P.[.{.].].].].].].].",
"].].].].].].].].].].].].].].].].].].].].].].].].].].].].].].].].].].].].{.s.3 8 7 # 4 q 6.[ o.|.3.r   r 6.6.B.Z.T.'.].].].].].].",
"].].].].].].].].].).].].].].].].].].].].].].].].].].].].].].].].].].].{.`.) 3 4 O O 4 4 4 r 2.|.6.{ $ 7  X7.4 5 U c.].].].].].].",
"].].].].].].].].].].].].].).].].].].].].].].].].].].].].].].].].].].].].].A.r + . # X     8 2.5...r 7 $ r q @ ! ! _ !.].].].].]."
};
